<svg id="Layer_1" data-name="Layer 1" xmlns="http://www.w3.org/2000/svg" viewBox="0 0 447.91 147.25"><defs><style>.cls-1{fill:#231f20;}.cls-2{fill:none;stroke:#231f20;stroke-miterlimit:10;stroke-width:8px;}</style></defs><path class="cls-1" d="M260,500.1v8.51H248.89V483.79h26.37q12.21,0,12.22,6.37v.37a4.58,4.58,0,0,1-.59,2.3,4.76,4.76,0,0,1-1.54,1.67,10.38,10.38,0,0,1-1.87,1,10.74,10.74,0,0,1-1.86.57,8.46,8.46,0,0,1,4.37,2.05,5.07,5.07,0,0,1,1.6,3.85v3.67a5.36,5.36,0,0,0,.55,2.8v.17H276.82a1.82,1.82,0,0,1-.35-1.3v-2.9a3.88,3.88,0,0,0-1.34-3.25c-.9-.71-2.42-1.06-4.55-1.06Zm0-10.27v4.27h12.72c2.23,0,3.35-.71,3.35-2.13v0c0-1.4-1.12-2.1-3.35-2.1Z" transform="translate(-225.79 -389.57)"/><path class="cls-1" d="M290.64,483.79h32.11v6.07H301.56V493h20.76v6H301.56v3.41h21.5v6.2H290.64Z" transform="translate(-225.79 -389.57)"/><path class="cls-1" d="M346.2,509.08h-3.55q-17.72,0-17.72-8.81v-.33h12.18q.3,3.49,7.25,3.5h.36a31.56,31.56,0,0,0,3.7-.18,7.19,7.19,0,0,0,2.19-.54,2.31,2.31,0,0,0,.95-.73,1.57,1.57,0,0,0,.26-.88v0a1.54,1.54,0,0,0-.41-1.12,4.38,4.38,0,0,0-2-.73,26.56,26.56,0,0,0-4.47-.38l-5.39-.14q-14.24-.33-14.24-7.47v-.3a6.07,6.07,0,0,1,.43-2.35,5.8,5.8,0,0,1,1.56-2.05,9.21,9.21,0,0,1,3-1.67,24.83,24.83,0,0,1,4.82-1.08,50.17,50.17,0,0,1,6.92-.42h3.48q17.63,0,17.63,7.84v.27H351.11q-.35-2.64-7-2.64h-.39a24.8,24.8,0,0,0-4.21.28,4.07,4.07,0,0,0-1.84.64,1.25,1.25,0,0,0-.35.92v0a1.19,1.19,0,0,0,.41.93,4.29,4.29,0,0,0,1.85.65,23.62,23.62,0,0,0,4.06.32l5.23.1q8.23.19,11.79,1.95a5.81,5.81,0,0,1,3.55,5.52v.47a7.46,7.46,0,0,1-.39,2.48,6,6,0,0,1-1.57,2.27,9.46,9.46,0,0,1-3.1,1.94,23.28,23.28,0,0,1-5.23,1.26A52.45,52.45,0,0,1,346.2,509.08Z" transform="translate(-225.79 -389.57)"/><path class="cls-1" d="M377.41,508.61V490.56H364.89v-6.77H401v6.77H388.49v18.05Z" transform="translate(-225.79 -389.57)"/><path class="cls-1" d="M427.83,508.61l-2.27-4H409l-2.22,4H395.52l14.36-24.82h14.9L440,508.61ZM422,498.4l-4.88-8.54-4.76,8.54Z" transform="translate(-225.79 -389.57)"/><path class="cls-1" d="M437.78,495.63V483.79H448.9V494.9a6.86,6.86,0,0,0,.39,2.35,6.49,6.49,0,0,0,1.28,2.1,6.09,6.09,0,0,0,2.76,1.62,14.54,14.54,0,0,0,4.46.6,14.25,14.25,0,0,0,4.41-.6,6,6,0,0,0,4.06-3.72,6.86,6.86,0,0,0,.39-2.35V483.79h11.08v11.84a13.68,13.68,0,0,1-.39,3.27,11.59,11.59,0,0,1-1.64,3.51,12.38,12.38,0,0,1-3.24,3.3,17.49,17.49,0,0,1-5.58,2.35,32.59,32.59,0,0,1-8.27.95h-1.56a33.85,33.85,0,0,1-8.47-.95,17.93,17.93,0,0,1-5.63-2.35,11.88,11.88,0,0,1-3.24-3.32,11,11,0,0,1-1.58-3.49A14.5,14.5,0,0,1,437.78,495.63Z" transform="translate(-225.79 -389.57)"/><path class="cls-1" d="M492.25,500.1v8.51H481.16V483.79h26.38q12.21,0,12.21,6.37v.37a4.57,4.57,0,0,1-.58,2.3,4.85,4.85,0,0,1-1.54,1.67,10.12,10.12,0,0,1-1.88,1,10.38,10.38,0,0,1-1.85.57,8.46,8.46,0,0,1,4.37,2.05,5.07,5.07,0,0,1,1.6,3.85v3.67a5.36,5.36,0,0,0,.55,2.8v.17H509.1a1.82,1.82,0,0,1-.35-1.3v-2.9a3.86,3.86,0,0,0-1.35-3.25c-.89-.71-2.41-1.06-4.54-1.06Zm0-10.27v4.27H505c2.23,0,3.35-.71,3.35-2.13v0c0-1.4-1.12-2.1-3.35-2.1Z" transform="translate(-225.79 -389.57)"/><path class="cls-1" d="M553.12,508.61l-2.27-4H534.27l-2.23,4H520.81l14.36-24.82h14.9l15.18,24.82ZM547.3,498.4l-4.88-8.54-4.76,8.54Z" transform="translate(-225.79 -389.57)"/><path class="cls-1" d="M566.5,483.79h12.41l16.85,14.11V483.79h11v24.82H595.68l-18.18-15v15h-11Z" transform="translate(-225.79 -389.57)"/><path class="cls-1" d="M622.14,508.61V490.56H609.61v-6.77h36.14v6.77H633.22v18.05Z" transform="translate(-225.79 -389.57)"/><path class="cls-1" d="M309.21,467.55l-4.23-8H274l-4.17,8h-21L275.63,418h27.89l28.39,49.53Zm-10.87-20.37-9.13-17.05-8.9,17.05Z" transform="translate(-225.79 -389.57)"/><path class="cls-1" d="M334.25,418H355v35.35h37.67v14.18h-58.4Z" transform="translate(-225.79 -389.57)"/><path class="cls-1" d="M418.78,418v49.53H398.12V418Z" transform="translate(-225.79 -389.57)"/><path class="cls-1" d="M465.21,468.49h-2.85a71.66,71.66,0,0,1-16.75-1.74,37.28,37.28,0,0,1-11.21-4.29,22.87,22.87,0,0,1-6.49-6.09,19.78,19.78,0,0,1-3.22-6.53,26.69,26.69,0,0,1-.73-6.26v-1.93a26.74,26.74,0,0,1,.7-6.26,19.48,19.48,0,0,1,3.1-6.42,21.4,21.4,0,0,1,6.39-6,37.45,37.45,0,0,1,11.24-4.2,75.26,75.26,0,0,1,17-1.7h2.85a89.71,89.71,0,0,1,12.44.8,55.56,55.56,0,0,1,9.49,2.07,33.5,33.5,0,0,1,6.79,3,21,21,0,0,1,4.64,3.56,17,17,0,0,1,2.73,3.83,14.06,14.06,0,0,1,1.39,3.63,15.33,15.33,0,0,1,.33,3.12V438H481.49Q479,430.4,463.6,430.4q-18.18,0-18.18,11.59v.79a10.71,10.71,0,0,0,.84,4.2,12.55,12.55,0,0,0,2.78,3.93,13.35,13.35,0,0,0,5.69,3.06,31.06,31.06,0,0,0,8.94,1.13,36.89,36.89,0,0,0,8-.76,21.33,21.33,0,0,0,5.18-1.7,9.67,9.67,0,0,0,2.92-2.33,8.7,8.7,0,0,0,1.39-2c.15-.4.29-.84.44-1.33H503V448a15.51,15.51,0,0,1-.73,4.63,16.33,16.33,0,0,1-3.21,5.33,23.37,23.37,0,0,1-6.39,5.19,39.43,39.43,0,0,1-11,3.76A78.89,78.89,0,0,1,465.21,468.49Z" transform="translate(-225.79 -389.57)"/><path class="cls-1" d="M508,418h60.08v12.11H528.42v6.2h38.84v12.05H528.42v6.79h40.22v12.38H508Z" transform="translate(-225.79 -389.57)"/><path class="cls-1" d="M611.93,468.49h-6.64q-33.15,0-33.14-17.58v-.67h22.77q.58,7,13.58,7h.66a55.37,55.37,0,0,0,6.93-.36,12.77,12.77,0,0,0,4.09-1.07,4.6,4.6,0,0,0,1.79-1.46,3.34,3.34,0,0,0,.47-1.77v-.06a3.18,3.18,0,0,0-.76-2.24,7.72,7.72,0,0,0-3.65-1.46,47.31,47.31,0,0,0-8.36-.77l-10.08-.26Q573,447.11,573,432.86v-.6a13.15,13.15,0,0,1,.8-4.69,11.33,11.33,0,0,1,2.92-4.09,16.58,16.58,0,0,1,5.55-3.33,43.25,43.25,0,0,1,9-2.17,89.53,89.53,0,0,1,13-.83h6.5q33,0,33,15.65v.53H621.13q-.66-5.26-13.14-5.26h-.73a41.46,41.46,0,0,0-7.88.57c-1.86.37-3,.79-3.44,1.26a2.61,2.61,0,0,0-.65,1.83v.07a2.47,2.47,0,0,0,.76,1.86,7.89,7.89,0,0,0,3.47,1.3,41.33,41.33,0,0,0,7.59.63l9.78.2q15.4.4,22.05,3.9a11.62,11.62,0,0,1,6.64,11v.93a15.8,15.8,0,0,1-.73,5,12.15,12.15,0,0,1-2.92,4.53,17.44,17.44,0,0,1-5.8,3.86,41.45,41.45,0,0,1-9.78,2.53A94.91,94.91,0,0,1,611.93,468.49Z" transform="translate(-225.79 -389.57)"/><rect class="cls-2" x="4" y="4" width="439.91" height="139.25"/></svg>