<svg id="Layer_1" data-name="Layer 1" xmlns="http://www.w3.org/2000/svg" viewBox="0 0 447.91 147.25"><defs><style>.cls-1{fill:#fff;}.cls-2{fill:none;stroke:#fff;stroke-miterlimit:10;stroke-width:8px;}</style></defs><path class="cls-1" d="M34.21,110.53V119H23.1V94.22H49.47q12.21,0,12.22,6.37V101a4.51,4.51,0,0,1-.59,2.3,4.74,4.74,0,0,1-1.54,1.67,10.18,10.18,0,0,1-1.87,1,10,10,0,0,1-1.86.57,8.48,8.48,0,0,1,4.37,2,5.08,5.08,0,0,1,1.6,3.85v3.67a5.42,5.42,0,0,0,.55,2.8V119H51a1.83,1.83,0,0,1-.35-1.3v-2.9a3.87,3.87,0,0,0-1.34-3.25c-.9-.71-2.42-1.06-4.55-1.06Zm0-10.27v4.27H46.93c2.23,0,3.35-.71,3.35-2.13h0c0-1.4-1.12-2.1-3.35-2.1Z"/><path class="cls-1" d="M64.85,94.22H97v6.07H75.77v3.14H96.53v6H75.77v3.41h21.5V119H64.85Z"/><path class="cls-1" d="M120.41,119.51h-3.55q-17.72,0-17.72-8.81v-.33h12.18c.2,2.33,2.62,3.49,7.25,3.5h.36a32.62,32.62,0,0,0,3.7-.18,7.25,7.25,0,0,0,2.19-.54,2.36,2.36,0,0,0,1-.73,1.62,1.62,0,0,0,.26-.88h0a1.54,1.54,0,0,0-.41-1.12,4.49,4.49,0,0,0-2-.73,26.8,26.8,0,0,0-4.47-.38l-5.39-.14q-14.24-.33-14.24-7.47v-.3a6.12,6.12,0,0,1,.43-2.35,5.8,5.8,0,0,1,1.56-2,9.13,9.13,0,0,1,3-1.67,24.89,24.89,0,0,1,4.82-1.08,50,50,0,0,1,6.92-.42h3.48q17.62,0,17.63,7.84v.27h-12c-.23-1.76-2.57-2.64-7-2.64h-.39a24.69,24.69,0,0,0-4.21.28,4,4,0,0,0-1.84.64,1.27,1.27,0,0,0-.35.92h0a1.17,1.17,0,0,0,.41.93,4.24,4.24,0,0,0,1.85.65,24,24,0,0,0,4.06.32l5.23.1q8.24.19,11.79,2a5.8,5.8,0,0,1,3.55,5.52v.47a7.48,7.48,0,0,1-.39,2.48,6,6,0,0,1-1.57,2.27,9.54,9.54,0,0,1-3.1,1.94,23.48,23.48,0,0,1-5.23,1.26A52.48,52.48,0,0,1,120.41,119.51Z"/><path class="cls-1" d="M151.62,119V101H139.1V94.22h36.11V101H162.7V119Z"/><path class="cls-1" d="M202,119l-2.27-4H183.21L181,119H169.73l14.36-24.82H199L214.21,119Zm-5.83-10.21-4.88-8.54-4.76,8.54Z"/><path class="cls-1" d="M212,106.06V94.22h11.12v11.11a6.7,6.7,0,0,0,.39,2.35,6.38,6.38,0,0,0,1.28,2.1,6,6,0,0,0,2.76,1.62,14.64,14.64,0,0,0,4.46.6,14.32,14.32,0,0,0,4.41-.6,6,6,0,0,0,4.06-3.72,6.7,6.7,0,0,0,.39-2.35V94.22h11.08v11.84a13.86,13.86,0,0,1-.39,3.27,11.73,11.73,0,0,1-1.64,3.51,12.4,12.4,0,0,1-3.24,3.3,17.49,17.49,0,0,1-5.58,2.35,32.41,32.41,0,0,1-8.27,1h-1.56a34,34,0,0,1-8.47-1,18,18,0,0,1-5.63-2.35,11.78,11.78,0,0,1-3.24-3.32,10.91,10.91,0,0,1-1.58-3.49A14.37,14.37,0,0,1,212,106.06Z"/><path class="cls-1" d="M266.46,110.53V119H255.37V94.22h26.38q12.21,0,12.21,6.37V101a4.63,4.63,0,0,1-.58,2.3,4.83,4.83,0,0,1-1.54,1.67,10.26,10.26,0,0,1-1.88,1,10.14,10.14,0,0,1-1.85.57,8.48,8.48,0,0,1,4.37,2,5.08,5.08,0,0,1,1.6,3.85v3.67a5.42,5.42,0,0,0,.55,2.8V119H283.31a1.83,1.83,0,0,1-.35-1.3v-2.9a3.84,3.84,0,0,0-1.35-3.25c-.89-.71-2.41-1.06-4.54-1.06Zm0-10.27v4.27h12.75c2.23,0,3.35-.71,3.35-2.13h0c0-1.4-1.12-2.1-3.35-2.1Z"/><path class="cls-1" d="M327.33,119l-2.27-4H308.48l-2.23,4H295l14.36-24.82h14.9L339.46,119Zm-5.82-10.21-4.88-8.54-4.76,8.54Z"/><path class="cls-1" d="M340.71,94.22h12.41L370,108.33V94.22h11V119H369.89l-18.18-15v15h-11Z"/><path class="cls-1" d="M396.35,119V101H383.82V94.22H420V101H407.43V119Z"/><path class="cls-1" d="M83.42,78l-4.23-8h-31L44,78H23l26.8-49.55H77.73L106.12,78ZM72.55,57.61l-9.13-17-8.9,17Z"/><path class="cls-1" d="M108.46,28.43h20.75V63.78h37.67V78h-58.4Z"/><path class="cls-1" d="M193,28.43V78H172.33V28.43Z"/><path class="cls-1" d="M239.42,78.92h-2.85a71.52,71.52,0,0,1-16.75-1.74,37.34,37.34,0,0,1-11.21-4.29,22.84,22.84,0,0,1-6.49-6.09,19.73,19.73,0,0,1-3.22-6.53,26.91,26.91,0,0,1-.73-6.26V52.08a26.89,26.89,0,0,1,.7-6.26A19.49,19.49,0,0,1,202,39.4a21.4,21.4,0,0,1,6.39-6,37.42,37.42,0,0,1,11.24-4.2,75.29,75.29,0,0,1,17-1.7h2.85a90.76,90.76,0,0,1,12.44.8,55,55,0,0,1,9.49,2.07,33.73,33.73,0,0,1,6.79,3,20.61,20.61,0,0,1,4.64,3.56,17,17,0,0,1,2.73,3.83,13.9,13.9,0,0,1,1.39,3.63,14.9,14.9,0,0,1,.33,3.12v.92H255.7q-2.49-7.6-17.89-7.6-18.18,0-18.18,11.59v.79a10.64,10.64,0,0,0,.84,4.2,12.49,12.49,0,0,0,2.78,3.93,13.37,13.37,0,0,0,5.69,3.06,31,31,0,0,0,8.94,1.13,37,37,0,0,0,8-.76,21.11,21.11,0,0,0,5.18-1.7A9.58,9.58,0,0,0,254,60.74a9,9,0,0,0,1.39-2c.15-.4.29-.84.44-1.33h21.4v1a15.5,15.5,0,0,1-.73,4.63,16.3,16.3,0,0,1-3.21,5.33,23.55,23.55,0,0,1-6.39,5.19,39.35,39.35,0,0,1-11,3.76A79.11,79.11,0,0,1,239.42,78.92Z"/><path class="cls-1" d="M282.21,28.43h60.08V40.54H302.63v6.2h38.84v12H302.63v6.79h40.22V78H282.21Z"/><path class="cls-1" d="M386.14,78.92H379.5q-33.15,0-33.14-17.58v-.67h22.77q.58,7,13.58,7h.66a55.28,55.28,0,0,0,6.93-.36,12.88,12.88,0,0,0,4.09-1.07,4.63,4.63,0,0,0,1.79-1.46,3.33,3.33,0,0,0,.47-1.77V63a3.2,3.2,0,0,0-.76-2.24,7.73,7.73,0,0,0-3.65-1.46,47.88,47.88,0,0,0-8.36-.77l-10.08-.26q-26.6-.67-26.59-14.93v-.6A13.15,13.15,0,0,1,348,38a11.3,11.3,0,0,1,2.92-4.09,16.54,16.54,0,0,1,5.55-3.33,43.43,43.43,0,0,1,9-2.17,89.72,89.72,0,0,1,13-.83H385q33,0,33,15.65v.53H395.34q-.66-5.26-13.14-5.26h-.73a41.58,41.58,0,0,0-7.88.57c-1.86.37-3,.79-3.44,1.26a2.61,2.61,0,0,0-.65,1.83v.07a2.45,2.45,0,0,0,.76,1.86,7.93,7.93,0,0,0,3.47,1.3,42,42,0,0,0,7.59.63l9.78.2q15.4.41,22,3.9a11.62,11.62,0,0,1,6.64,11v.93a15.73,15.73,0,0,1-.73,5,12.11,12.11,0,0,1-2.92,4.53,17.44,17.44,0,0,1-5.8,3.86A41.28,41.28,0,0,1,400.56,78,95.36,95.36,0,0,1,386.14,78.92Z"/><rect class="cls-2" x="4" y="4" width="439.91" height="139.25"/></svg>