<svg xmlns="http://www.w3.org/2000/svg" width="771.234" height="99.553" viewBox="0 0 771.234 99.553"><g transform="translate(-171.808 -223.602)"><g transform="translate(171.808 222.403)"><rect width="125.94" height="2.399" transform="translate(546.941 49.176)" fill="#ccc"/><rect width="399.411" height="2.399" transform="translate(49.176 49.176)" fill="#ccc"/><circle cx="49.176" cy="49.176" r="49.176" transform="translate(0 1.199)" fill="#0d25ff"/><path d="M307.494,244.209a3.983,3.983,0,0,1-2.4-.8l-.043-.032-9.026-6.9a4.011,4.011,0,0,1,4.881-6.366l5.846,4.483,13.814-18.023a4.009,4.009,0,0,1,5.621-.743h0l-.085.118.088-.118a4.013,4.013,0,0,1,.741,5.622l-16.249,21.188a4.012,4.012,0,0,1-3.194,1.564Z" transform="translate(-262.104 -179.171)" fill="#fff"/><circle cx="49.176" cy="49.176" r="49.176" transform="translate(225.588 2.399)" fill="#0d25ff"/><path d="M307.494,244.209a3.983,3.983,0,0,1-2.4-.8l-.043-.032-9.026-6.9a4.011,4.011,0,0,1,4.881-6.366l5.846,4.483,13.814-18.023a4.009,4.009,0,0,1,5.621-.743h0l-.085.118.088-.118a4.013,4.013,0,0,1,.741,5.622l-16.249,21.188a4.012,4.012,0,0,1-3.194,1.564Z" transform="translate(-36.346 -179.171)" fill="#fff"/><circle cx="49.176" cy="49.176" r="49.176" transform="translate(448.588 1.2)" fill="#0d25ff"/><path d="M307.494,244.209a3.983,3.983,0,0,1-2.4-.8l-.043-.032-9.026-6.9a4.011,4.011,0,0,1,4.881-6.366l5.846,4.483,13.814-18.023a4.009,4.009,0,0,1,5.621-.743h0l-.085.118.088-.118a4.013,4.013,0,0,1,.741,5.622l-16.249,21.188a4.012,4.012,0,0,1-3.194,1.564Z" transform="translate(186.653 -180.37)" fill="#fff"/></g><circle cx="49.176" cy="49.176" r="49.176" transform="translate(844.689 223.602)" fill="#3f3d56"/></g></svg>