<svg xmlns="http://www.w3.org/2000/svg" width="772.429" height="100.753" viewBox="0 0 772.429 100.753"><g transform="translate(-171.808 -222.403)"><g transform="translate(171.808 222.403)"><rect width="125.94" height="2.399" transform="translate(546.941 49.176)" fill="#ccc"/><rect width="399.411" height="2.399" transform="translate(49.176 49.176)" fill="#ccc"/><circle cx="49.176" cy="49.176" r="49.176" transform="translate(0 1.199)" fill="#0d25ff"/><circle cx="49.176" cy="49.176" r="49.176" transform="translate(224.294 1.199)" fill="#3f3d56"/><path d="M885.519,284.381A50.376,50.376,0,1,1,935.9,234,50.377,50.377,0,0,1,885.519,284.381Zm0-98.354A47.977,47.977,0,1,0,933.5,234a47.977,47.977,0,0,0-47.977-47.977Z" transform="translate(-387.76 -183.628)" fill="#ccc"/><path d="M1072.519,284.381A50.376,50.376,0,1,1,1122.9,234,50.377,50.377,0,0,1,1072.519,284.381Zm0-98.354A47.977,47.977,0,1,0,1120.5,234,47.977,47.977,0,0,0,1072.519,186.027Z" transform="translate(-350.467 -183.628)" fill="#ccc"/><path d="M307.494,244.209a3.983,3.983,0,0,1-2.4-.8l-.043-.032-9.026-6.9a4.011,4.011,0,0,1,4.881-6.366l5.846,4.483,13.814-18.023a4.009,4.009,0,0,1,5.621-.743h0l-.085.118.088-.118a4.013,4.013,0,0,1,.741,5.622l-16.249,21.188a4.012,4.012,0,0,1-3.194,1.564Z" transform="translate(-262.104 -179.171)" fill="#fff"/><circle cx="49.176" cy="49.176" r="49.176" transform="translate(224.294 1.199)" fill="#3f3d56"/></g></g></svg>